<mxfile host="app.diagrams.net" modified="2024-04-13T15:26:06.186Z" agent="Mozilla/5.0 (X11; Linux x86_64) AppleWebKit/537.36 (KHTML, like Gecko) Chrome/123.0.0.0 Safari/537.36" etag="iCmffVGlO3ipdTZ20Ueq" version="24.2.5" type="github">
  <diagram id="C5RBs43oDa-KdzZeNtuy" name="Page-1">
    <mxGraphModel dx="1196" dy="705" grid="1" gridSize="10" guides="1" tooltips="1" connect="1" arrows="1" fold="1" page="1" pageScale="1" pageWidth="827" pageHeight="1169" math="0" shadow="0">
      <root>
        <mxCell id="WIyWlLk6GJQsqaUBKTNV-0" />
        <mxCell id="WIyWlLk6GJQsqaUBKTNV-1" parent="WIyWlLk6GJQsqaUBKTNV-0" />
        <mxCell id="WIyWlLk6GJQsqaUBKTNV-5" value="Verdadeiro" style="edgeStyle=orthogonalEdgeStyle;rounded=0;html=1;jettySize=auto;orthogonalLoop=1;fontSize=14;endArrow=classic;endFill=1;endSize=8;strokeWidth=3;shadow=0;labelBackgroundColor=none;entryX=0;entryY=0.5;entryDx=0;entryDy=0;" parent="WIyWlLk6GJQsqaUBKTNV-1" source="WIyWlLk6GJQsqaUBKTNV-6" target="CgjVXPPcgp7lKrrwEX3h-26" edge="1">
          <mxGeometry y="10" relative="1" as="geometry">
            <mxPoint as="offset" />
            <mxPoint x="280" y="280" as="targetPoint" />
          </mxGeometry>
        </mxCell>
        <mxCell id="CgjVXPPcgp7lKrrwEX3h-45" style="edgeStyle=orthogonalEdgeStyle;rounded=0;orthogonalLoop=1;jettySize=auto;html=1;exitX=0.5;exitY=1;exitDx=0;exitDy=0;entryX=0.5;entryY=0;entryDx=0;entryDy=0;fontSize=14;strokeWidth=3;" edge="1" parent="WIyWlLk6GJQsqaUBKTNV-1" source="WIyWlLk6GJQsqaUBKTNV-6" target="WIyWlLk6GJQsqaUBKTNV-10">
          <mxGeometry relative="1" as="geometry" />
        </mxCell>
        <mxCell id="CgjVXPPcgp7lKrrwEX3h-52" value="Falso" style="edgeLabel;html=1;align=center;verticalAlign=middle;resizable=0;points=[];fontSize=14;" vertex="1" connectable="0" parent="CgjVXPPcgp7lKrrwEX3h-45">
          <mxGeometry x="-0.3" y="-1" relative="1" as="geometry">
            <mxPoint as="offset" />
          </mxGeometry>
        </mxCell>
        <mxCell id="WIyWlLk6GJQsqaUBKTNV-6" value="X == 0.0&lt;div style=&quot;font-size: 12px;&quot;&gt;E&lt;/div&gt;&lt;div style=&quot;font-size: 12px;&quot;&gt;Y == 0.0&lt;/div&gt;" style="rhombus;whiteSpace=wrap;html=1;shadow=0;fontFamily=Helvetica;fontSize=12;align=center;strokeWidth=3;spacing=6;spacingTop=-4;fontStyle=1" parent="WIyWlLk6GJQsqaUBKTNV-1" vertex="1">
          <mxGeometry x="50" y="240" width="100" height="80" as="geometry" />
        </mxCell>
        <mxCell id="CgjVXPPcgp7lKrrwEX3h-46" style="edgeStyle=orthogonalEdgeStyle;rounded=0;orthogonalLoop=1;jettySize=auto;html=1;exitX=0.5;exitY=1;exitDx=0;exitDy=0;entryX=0.5;entryY=0;entryDx=0;entryDy=0;fontSize=14;strokeWidth=3;" edge="1" parent="WIyWlLk6GJQsqaUBKTNV-1" source="WIyWlLk6GJQsqaUBKTNV-10" target="CgjVXPPcgp7lKrrwEX3h-8">
          <mxGeometry relative="1" as="geometry" />
        </mxCell>
        <mxCell id="CgjVXPPcgp7lKrrwEX3h-51" value="Falso" style="edgeLabel;html=1;align=center;verticalAlign=middle;resizable=0;points=[];fontSize=14;" vertex="1" connectable="0" parent="CgjVXPPcgp7lKrrwEX3h-46">
          <mxGeometry x="-0.45" y="1" relative="1" as="geometry">
            <mxPoint as="offset" />
          </mxGeometry>
        </mxCell>
        <mxCell id="WIyWlLk6GJQsqaUBKTNV-10" value="X != 0.0&lt;div style=&quot;font-size: 12px;&quot;&gt;E&lt;/div&gt;&lt;div style=&quot;font-size: 12px;&quot;&gt;Y == 0.0&lt;/div&gt;" style="rhombus;whiteSpace=wrap;html=1;shadow=0;fontFamily=Helvetica;fontSize=12;align=center;strokeWidth=3;spacing=6;spacingTop=-4;fontStyle=1" parent="WIyWlLk6GJQsqaUBKTNV-1" vertex="1">
          <mxGeometry x="50" y="360" width="100" height="80" as="geometry" />
        </mxCell>
        <mxCell id="CgjVXPPcgp7lKrrwEX3h-2" style="edgeStyle=orthogonalEdgeStyle;rounded=0;orthogonalLoop=1;jettySize=auto;html=1;entryX=0.5;entryY=0;entryDx=0;entryDy=0;strokeWidth=4;fontSize=14;" edge="1" parent="WIyWlLk6GJQsqaUBKTNV-1" source="CgjVXPPcgp7lKrrwEX3h-0" target="CgjVXPPcgp7lKrrwEX3h-23">
          <mxGeometry relative="1" as="geometry">
            <mxPoint x="100" y="160" as="targetPoint" />
          </mxGeometry>
        </mxCell>
        <mxCell id="CgjVXPPcgp7lKrrwEX3h-0" value="InÃ­cio" style="ellipse;whiteSpace=wrap;html=1;strokeWidth=4;fontSize=14;fillColor=#d5e8d4;strokeColor=#82b366;" vertex="1" parent="WIyWlLk6GJQsqaUBKTNV-1">
          <mxGeometry x="40" y="40" width="120" height="80" as="geometry" />
        </mxCell>
        <mxCell id="CgjVXPPcgp7lKrrwEX3h-1" value="Fim" style="ellipse;whiteSpace=wrap;html=1;strokeWidth=4;fontSize=14;fillColor=#e51400;strokeColor=#B20000;fontColor=#ffffff;fontStyle=1" vertex="1" parent="WIyWlLk6GJQsqaUBKTNV-1">
          <mxGeometry x="600" y="600" width="120" height="80" as="geometry" />
        </mxCell>
        <mxCell id="CgjVXPPcgp7lKrrwEX3h-4" value="Verdadeiro" style="edgeStyle=orthogonalEdgeStyle;rounded=0;html=1;jettySize=auto;orthogonalLoop=1;fontSize=14;endArrow=classic;endFill=1;endSize=8;strokeWidth=3;shadow=0;labelBackgroundColor=none;exitX=1;exitY=0.5;exitDx=0;exitDy=0;entryX=0;entryY=0.5;entryDx=0;entryDy=0;" edge="1" parent="WIyWlLk6GJQsqaUBKTNV-1" source="WIyWlLk6GJQsqaUBKTNV-10" target="CgjVXPPcgp7lKrrwEX3h-27">
          <mxGeometry y="10" relative="1" as="geometry">
            <mxPoint as="offset" />
            <mxPoint x="160" y="310" as="sourcePoint" />
            <mxPoint x="280" y="400" as="targetPoint" />
          </mxGeometry>
        </mxCell>
        <mxCell id="CgjVXPPcgp7lKrrwEX3h-7" value="Verdadeiro" style="edgeStyle=orthogonalEdgeStyle;rounded=0;html=1;jettySize=auto;orthogonalLoop=1;fontSize=14;endArrow=classic;endFill=1;endSize=8;strokeWidth=3;shadow=0;labelBackgroundColor=none;entryX=0;entryY=0.5;entryDx=0;entryDy=0;" edge="1" parent="WIyWlLk6GJQsqaUBKTNV-1" source="CgjVXPPcgp7lKrrwEX3h-8" target="CgjVXPPcgp7lKrrwEX3h-28">
          <mxGeometry y="10" relative="1" as="geometry">
            <mxPoint as="offset" />
            <mxPoint x="280" y="520" as="targetPoint" />
          </mxGeometry>
        </mxCell>
        <mxCell id="CgjVXPPcgp7lKrrwEX3h-42" style="edgeStyle=orthogonalEdgeStyle;rounded=0;orthogonalLoop=1;jettySize=auto;html=1;exitX=0.5;exitY=1;exitDx=0;exitDy=0;entryX=0.5;entryY=0;entryDx=0;entryDy=0;fontSize=14;strokeWidth=3;" edge="1" parent="WIyWlLk6GJQsqaUBKTNV-1" source="CgjVXPPcgp7lKrrwEX3h-8" target="CgjVXPPcgp7lKrrwEX3h-31">
          <mxGeometry relative="1" as="geometry" />
        </mxCell>
        <mxCell id="CgjVXPPcgp7lKrrwEX3h-43" value="Falso" style="edgeLabel;html=1;align=center;verticalAlign=middle;resizable=0;points=[];fontSize=14;" vertex="1" connectable="0" parent="CgjVXPPcgp7lKrrwEX3h-42">
          <mxGeometry x="-0.15" y="1" relative="1" as="geometry">
            <mxPoint as="offset" />
          </mxGeometry>
        </mxCell>
        <mxCell id="CgjVXPPcgp7lKrrwEX3h-8" value="X == 0.0&lt;div style=&quot;font-size: 12px;&quot;&gt;E&lt;/div&gt;&lt;div style=&quot;font-size: 12px;&quot;&gt;Y != 0.0&lt;/div&gt;" style="rhombus;whiteSpace=wrap;html=1;shadow=0;fontFamily=Helvetica;fontSize=12;align=center;strokeWidth=3;spacing=6;spacingTop=-4;fontStyle=1" vertex="1" parent="WIyWlLk6GJQsqaUBKTNV-1">
          <mxGeometry x="50" y="480" width="100" height="80" as="geometry" />
        </mxCell>
        <mxCell id="CgjVXPPcgp7lKrrwEX3h-25" style="edgeStyle=orthogonalEdgeStyle;rounded=0;orthogonalLoop=1;jettySize=auto;html=1;exitX=0.5;exitY=1;exitDx=0;exitDy=0;entryX=0.5;entryY=0;entryDx=0;entryDy=0;strokeWidth=3;fontSize=14;" edge="1" parent="WIyWlLk6GJQsqaUBKTNV-1" source="CgjVXPPcgp7lKrrwEX3h-23" target="WIyWlLk6GJQsqaUBKTNV-6">
          <mxGeometry relative="1" as="geometry" />
        </mxCell>
        <mxCell id="CgjVXPPcgp7lKrrwEX3h-23" value="Leia(X,Y)" style="shape=parallelogram;perimeter=parallelogramPerimeter;whiteSpace=wrap;html=1;fixedSize=1;strokeWidth=4;fontSize=14;fillColor=#fff2cc;strokeColor=#d6b656;" vertex="1" parent="WIyWlLk6GJQsqaUBKTNV-1">
          <mxGeometry x="40" y="160" width="120" height="40" as="geometry" />
        </mxCell>
        <mxCell id="CgjVXPPcgp7lKrrwEX3h-26" value="Imprime(&quot;Origem&quot;)" style="shape=parallelogram;perimeter=parallelogramPerimeter;whiteSpace=wrap;html=1;fixedSize=1;strokeWidth=3;fontSize=14;fillColor=#dae8fc;strokeColor=#6c8ebf;fontStyle=1" vertex="1" parent="WIyWlLk6GJQsqaUBKTNV-1">
          <mxGeometry x="250" y="260" width="150" height="40" as="geometry" />
        </mxCell>
        <mxCell id="CgjVXPPcgp7lKrrwEX3h-27" value="Imprime(&quot;Eixo Y&quot;)" style="shape=parallelogram;perimeter=parallelogramPerimeter;whiteSpace=wrap;html=1;fixedSize=1;strokeWidth=3;fontSize=14;fillColor=#dae8fc;strokeColor=#6c8ebf;fontStyle=1" vertex="1" parent="WIyWlLk6GJQsqaUBKTNV-1">
          <mxGeometry x="250" y="380" width="150" height="40" as="geometry" />
        </mxCell>
        <mxCell id="CgjVXPPcgp7lKrrwEX3h-28" value="Imprime(&quot;Eixo X&quot;)" style="shape=parallelogram;perimeter=parallelogramPerimeter;whiteSpace=wrap;html=1;fixedSize=1;strokeWidth=3;fontSize=14;fillColor=#dae8fc;strokeColor=#6c8ebf;fontStyle=1" vertex="1" parent="WIyWlLk6GJQsqaUBKTNV-1">
          <mxGeometry x="240" y="500" width="160" height="40" as="geometry" />
        </mxCell>
        <mxCell id="CgjVXPPcgp7lKrrwEX3h-30" value="Verdadeiro" style="edgeStyle=orthogonalEdgeStyle;rounded=0;html=1;jettySize=auto;orthogonalLoop=1;fontSize=14;endArrow=classic;endFill=1;endSize=8;strokeWidth=3;shadow=0;labelBackgroundColor=none;entryX=0;entryY=0.5;entryDx=0;entryDy=0;" edge="1" parent="WIyWlLk6GJQsqaUBKTNV-1" source="CgjVXPPcgp7lKrrwEX3h-31" target="CgjVXPPcgp7lKrrwEX3h-37">
          <mxGeometry y="10" relative="1" as="geometry">
            <mxPoint as="offset" />
            <mxPoint x="280" y="640" as="targetPoint" />
          </mxGeometry>
        </mxCell>
        <mxCell id="CgjVXPPcgp7lKrrwEX3h-47" style="edgeStyle=orthogonalEdgeStyle;rounded=0;orthogonalLoop=1;jettySize=auto;html=1;exitX=0.5;exitY=1;exitDx=0;exitDy=0;fontSize=14;strokeWidth=3;" edge="1" parent="WIyWlLk6GJQsqaUBKTNV-1" source="CgjVXPPcgp7lKrrwEX3h-31" target="CgjVXPPcgp7lKrrwEX3h-33">
          <mxGeometry relative="1" as="geometry" />
        </mxCell>
        <mxCell id="CgjVXPPcgp7lKrrwEX3h-49" value="Falso" style="edgeLabel;html=1;align=center;verticalAlign=middle;resizable=0;points=[];fontSize=14;" vertex="1" connectable="0" parent="CgjVXPPcgp7lKrrwEX3h-47">
          <mxGeometry x="-0.05" y="4" relative="1" as="geometry">
            <mxPoint as="offset" />
          </mxGeometry>
        </mxCell>
        <mxCell id="CgjVXPPcgp7lKrrwEX3h-31" value="X &amp;gt; 0.0&lt;div style=&quot;font-size: 12px;&quot;&gt;E&lt;/div&gt;&lt;div style=&quot;font-size: 12px;&quot;&gt;Y &amp;gt; 0.0&lt;/div&gt;" style="rhombus;whiteSpace=wrap;html=1;shadow=0;fontFamily=Helvetica;fontSize=12;align=center;strokeWidth=3;spacing=6;spacingTop=-4;fontStyle=1" vertex="1" parent="WIyWlLk6GJQsqaUBKTNV-1">
          <mxGeometry x="50" y="600" width="100" height="80" as="geometry" />
        </mxCell>
        <mxCell id="CgjVXPPcgp7lKrrwEX3h-48" style="edgeStyle=orthogonalEdgeStyle;rounded=0;orthogonalLoop=1;jettySize=auto;html=1;exitX=0.5;exitY=1;exitDx=0;exitDy=0;entryX=0.5;entryY=0;entryDx=0;entryDy=0;fontSize=14;strokeWidth=3;" edge="1" parent="WIyWlLk6GJQsqaUBKTNV-1" source="CgjVXPPcgp7lKrrwEX3h-33" target="CgjVXPPcgp7lKrrwEX3h-36">
          <mxGeometry relative="1" as="geometry" />
        </mxCell>
        <mxCell id="CgjVXPPcgp7lKrrwEX3h-50" value="Falso" style="edgeLabel;html=1;align=center;verticalAlign=middle;resizable=0;points=[];fontSize=14;" vertex="1" connectable="0" parent="CgjVXPPcgp7lKrrwEX3h-48">
          <mxGeometry x="-0.2" y="3" relative="1" as="geometry">
            <mxPoint as="offset" />
          </mxGeometry>
        </mxCell>
        <mxCell id="CgjVXPPcgp7lKrrwEX3h-33" value="X &amp;lt; 0.0&lt;div style=&quot;font-size: 12px;&quot;&gt;E&lt;/div&gt;&lt;div style=&quot;font-size: 12px;&quot;&gt;Y &amp;gt; 0.0&lt;/div&gt;" style="rhombus;whiteSpace=wrap;html=1;shadow=0;fontFamily=Helvetica;fontSize=12;align=center;strokeWidth=3;spacing=6;spacingTop=-4;fontStyle=1" vertex="1" parent="WIyWlLk6GJQsqaUBKTNV-1">
          <mxGeometry x="50" y="720" width="100" height="80" as="geometry" />
        </mxCell>
        <mxCell id="CgjVXPPcgp7lKrrwEX3h-34" value="Verdadeiro" style="edgeStyle=orthogonalEdgeStyle;rounded=0;html=1;jettySize=auto;orthogonalLoop=1;fontSize=14;endArrow=classic;endFill=1;endSize=8;strokeWidth=3;shadow=0;labelBackgroundColor=none;exitX=1;exitY=0.5;exitDx=0;exitDy=0;entryX=0;entryY=0.5;entryDx=0;entryDy=0;" edge="1" parent="WIyWlLk6GJQsqaUBKTNV-1" source="CgjVXPPcgp7lKrrwEX3h-33" target="CgjVXPPcgp7lKrrwEX3h-38">
          <mxGeometry y="10" relative="1" as="geometry">
            <mxPoint as="offset" />
            <mxPoint x="160" y="670" as="sourcePoint" />
            <mxPoint x="280" y="760" as="targetPoint" />
          </mxGeometry>
        </mxCell>
        <mxCell id="CgjVXPPcgp7lKrrwEX3h-35" value="Verdadeiro" style="edgeStyle=orthogonalEdgeStyle;rounded=0;html=1;jettySize=auto;orthogonalLoop=1;fontSize=14;endArrow=classic;endFill=1;endSize=8;strokeWidth=3;shadow=0;labelBackgroundColor=none;entryX=0;entryY=0.5;entryDx=0;entryDy=0;" edge="1" parent="WIyWlLk6GJQsqaUBKTNV-1" source="CgjVXPPcgp7lKrrwEX3h-36" target="CgjVXPPcgp7lKrrwEX3h-39">
          <mxGeometry y="10" relative="1" as="geometry">
            <mxPoint as="offset" />
            <mxPoint x="280" y="880" as="targetPoint" />
          </mxGeometry>
        </mxCell>
        <mxCell id="CgjVXPPcgp7lKrrwEX3h-41" style="edgeStyle=orthogonalEdgeStyle;rounded=0;orthogonalLoop=1;jettySize=auto;html=1;entryX=0;entryY=0.5;entryDx=0;entryDy=0;strokeWidth=3;fontSize=14;" edge="1" parent="WIyWlLk6GJQsqaUBKTNV-1" source="CgjVXPPcgp7lKrrwEX3h-36" target="CgjVXPPcgp7lKrrwEX3h-40">
          <mxGeometry relative="1" as="geometry">
            <Array as="points">
              <mxPoint x="100" y="980" />
            </Array>
          </mxGeometry>
        </mxCell>
        <mxCell id="CgjVXPPcgp7lKrrwEX3h-64" value="Falso" style="edgeLabel;html=1;align=center;verticalAlign=middle;resizable=0;points=[];fontSize=14;" vertex="1" connectable="0" parent="CgjVXPPcgp7lKrrwEX3h-41">
          <mxGeometry x="-0.6718" y="-2" relative="1" as="geometry">
            <mxPoint as="offset" />
          </mxGeometry>
        </mxCell>
        <mxCell id="CgjVXPPcgp7lKrrwEX3h-36" value="X &amp;lt; 0.0&lt;div style=&quot;font-size: 12px;&quot;&gt;E&lt;/div&gt;&lt;div style=&quot;font-size: 12px;&quot;&gt;Y &amp;lt; 0.0&lt;/div&gt;" style="rhombus;whiteSpace=wrap;html=1;shadow=0;fontFamily=Helvetica;fontSize=12;align=center;strokeWidth=3;spacing=6;spacingTop=-4;fontStyle=1" vertex="1" parent="WIyWlLk6GJQsqaUBKTNV-1">
          <mxGeometry x="50" y="840" width="100" height="80" as="geometry" />
        </mxCell>
        <mxCell id="CgjVXPPcgp7lKrrwEX3h-37" value="Imprime(&quot;Q1&quot;)" style="shape=parallelogram;perimeter=parallelogramPerimeter;whiteSpace=wrap;html=1;fixedSize=1;strokeWidth=3;fontSize=14;fillColor=#dae8fc;strokeColor=#6c8ebf;fontStyle=1" vertex="1" parent="WIyWlLk6GJQsqaUBKTNV-1">
          <mxGeometry x="250" y="620" width="150" height="40" as="geometry" />
        </mxCell>
        <mxCell id="CgjVXPPcgp7lKrrwEX3h-38" value="Imprime(&quot;Q2&quot;)" style="shape=parallelogram;perimeter=parallelogramPerimeter;whiteSpace=wrap;html=1;fixedSize=1;strokeWidth=3;fontSize=14;fillColor=#dae8fc;strokeColor=#6c8ebf;fontStyle=1" vertex="1" parent="WIyWlLk6GJQsqaUBKTNV-1">
          <mxGeometry x="250" y="740" width="150" height="40" as="geometry" />
        </mxCell>
        <mxCell id="CgjVXPPcgp7lKrrwEX3h-39" value="Imprime(&quot;Q3&quot;)" style="shape=parallelogram;perimeter=parallelogramPerimeter;whiteSpace=wrap;html=1;fixedSize=1;strokeWidth=3;fontSize=14;fillColor=#dae8fc;strokeColor=#6c8ebf;fontStyle=1" vertex="1" parent="WIyWlLk6GJQsqaUBKTNV-1">
          <mxGeometry x="240" y="860" width="160" height="40" as="geometry" />
        </mxCell>
        <mxCell id="CgjVXPPcgp7lKrrwEX3h-40" value="Imprime(&quot;Q4&quot;)" style="shape=parallelogram;perimeter=parallelogramPerimeter;whiteSpace=wrap;html=1;fixedSize=1;strokeWidth=3;fontSize=14;fillColor=#dae8fc;strokeColor=#6c8ebf;fontStyle=1" vertex="1" parent="WIyWlLk6GJQsqaUBKTNV-1">
          <mxGeometry x="240" y="960" width="160" height="40" as="geometry" />
        </mxCell>
        <mxCell id="CgjVXPPcgp7lKrrwEX3h-53" value="" style="endArrow=classic;html=1;rounded=0;exitX=1;exitY=0.5;exitDx=0;exitDy=0;entryX=0;entryY=0.5;entryDx=0;entryDy=0;strokeWidth=3;fontSize=14;fontStyle=1" edge="1" parent="WIyWlLk6GJQsqaUBKTNV-1" source="CgjVXPPcgp7lKrrwEX3h-26" target="CgjVXPPcgp7lKrrwEX3h-1">
          <mxGeometry width="50" height="50" relative="1" as="geometry">
            <mxPoint x="390" y="540" as="sourcePoint" />
            <mxPoint x="440" y="490" as="targetPoint" />
          </mxGeometry>
        </mxCell>
        <mxCell id="CgjVXPPcgp7lKrrwEX3h-54" value="" style="endArrow=classic;html=1;rounded=0;exitX=1;exitY=0.5;exitDx=0;exitDy=0;entryX=0;entryY=0.5;entryDx=0;entryDy=0;strokeWidth=3;fontSize=14;fontStyle=1" edge="1" parent="WIyWlLk6GJQsqaUBKTNV-1" source="CgjVXPPcgp7lKrrwEX3h-27" target="CgjVXPPcgp7lKrrwEX3h-1">
          <mxGeometry width="50" height="50" relative="1" as="geometry">
            <mxPoint x="400" y="290" as="sourcePoint" />
            <mxPoint x="600" y="460" as="targetPoint" />
          </mxGeometry>
        </mxCell>
        <mxCell id="CgjVXPPcgp7lKrrwEX3h-55" value="" style="endArrow=classic;html=1;rounded=0;exitX=1;exitY=0.5;exitDx=0;exitDy=0;entryX=0;entryY=0.5;entryDx=0;entryDy=0;strokeWidth=3;fontSize=14;fontStyle=1" edge="1" parent="WIyWlLk6GJQsqaUBKTNV-1" source="CgjVXPPcgp7lKrrwEX3h-28" target="CgjVXPPcgp7lKrrwEX3h-1">
          <mxGeometry width="50" height="50" relative="1" as="geometry">
            <mxPoint x="400" y="410" as="sourcePoint" />
            <mxPoint x="620" y="540" as="targetPoint" />
          </mxGeometry>
        </mxCell>
        <mxCell id="CgjVXPPcgp7lKrrwEX3h-57" value="" style="endArrow=classic;html=1;rounded=0;exitX=1;exitY=0.5;exitDx=0;exitDy=0;entryX=0;entryY=0.5;entryDx=0;entryDy=0;strokeWidth=3;fontSize=14;fontStyle=1" edge="1" parent="WIyWlLk6GJQsqaUBKTNV-1" source="CgjVXPPcgp7lKrrwEX3h-37" target="CgjVXPPcgp7lKrrwEX3h-1">
          <mxGeometry width="50" height="50" relative="1" as="geometry">
            <mxPoint x="410" y="420" as="sourcePoint" />
            <mxPoint x="630" y="550" as="targetPoint" />
          </mxGeometry>
        </mxCell>
        <mxCell id="CgjVXPPcgp7lKrrwEX3h-58" value="" style="endArrow=classic;html=1;rounded=0;exitX=1;exitY=0.5;exitDx=0;exitDy=0;entryX=0;entryY=0.5;entryDx=0;entryDy=0;strokeWidth=3;fontSize=14;fontStyle=1" edge="1" parent="WIyWlLk6GJQsqaUBKTNV-1" source="CgjVXPPcgp7lKrrwEX3h-38" target="CgjVXPPcgp7lKrrwEX3h-1">
          <mxGeometry width="50" height="50" relative="1" as="geometry">
            <mxPoint x="420" y="430" as="sourcePoint" />
            <mxPoint x="640" y="560" as="targetPoint" />
          </mxGeometry>
        </mxCell>
        <mxCell id="CgjVXPPcgp7lKrrwEX3h-59" value="" style="endArrow=classic;html=1;rounded=0;exitX=1;exitY=0.5;exitDx=0;exitDy=0;entryX=0;entryY=0.5;entryDx=0;entryDy=0;strokeWidth=3;fontSize=14;fontStyle=1" edge="1" parent="WIyWlLk6GJQsqaUBKTNV-1" source="CgjVXPPcgp7lKrrwEX3h-39" target="CgjVXPPcgp7lKrrwEX3h-1">
          <mxGeometry width="50" height="50" relative="1" as="geometry">
            <mxPoint x="430" y="440" as="sourcePoint" />
            <mxPoint x="650" y="570" as="targetPoint" />
          </mxGeometry>
        </mxCell>
        <mxCell id="CgjVXPPcgp7lKrrwEX3h-60" value="" style="endArrow=classic;html=1;rounded=0;exitX=1;exitY=0.5;exitDx=0;exitDy=0;entryX=0;entryY=0.5;entryDx=0;entryDy=0;strokeWidth=3;fontSize=14;fontStyle=1" edge="1" parent="WIyWlLk6GJQsqaUBKTNV-1" source="CgjVXPPcgp7lKrrwEX3h-40" target="CgjVXPPcgp7lKrrwEX3h-1">
          <mxGeometry width="50" height="50" relative="1" as="geometry">
            <mxPoint x="440" y="450" as="sourcePoint" />
            <mxPoint x="660" y="580" as="targetPoint" />
          </mxGeometry>
        </mxCell>
      </root>
    </mxGraphModel>
  </diagram>
</mxfile>
